<svg xmlns="http://www.w3.org/2000/svg">

	<symbol viewBox="0 0 25 25" id="goodIcon">
		<path d="M12.5 25C19.4036 25 25 19.4036 25 12.5C25 5.59644 19.4036 0 12.5 0C5.59644 0 0 5.59644 0 12.5C0 19.4036 5.59644 25 12.5 25Z" fill="#FFCA28"/>
		<path d="M7.8125 10.9375C8.67545 10.9375 9.375 10.2379 9.375 9.375C9.375 8.51206 8.67545 7.8125 7.8125 7.8125C6.94956 7.8125 6.25 8.51206 6.25 9.375C6.25 10.2379 6.94956 10.9375 7.8125 10.9375Z" fill="#6D4C41"/>
		<path d="M17.187 10.9375C18.05 10.9375 18.7495 10.2379 18.7495 9.375C18.7495 8.51206 18.05 7.8125 17.187 7.8125C16.3241 7.8125 15.6245 8.51206 15.6245 9.375C15.6245 10.2379 16.3241 10.9375 17.187 10.9375Z" fill="#6D4C41"/>
		<path d="M12.4996 20.3126C10.4121 20.3126 8.45117 19.4985 6.97461 18.0235C6.66992 17.7189 6.66992 17.2235 6.97461 16.9189C7.2793 16.6142 7.77461 16.6142 8.0793 16.9189C10.4402 19.2814 14.5559 19.2814 16.9184 16.9189C17.223 16.6142 17.7184 16.6142 18.023 16.9189C18.3277 17.2235 18.3277 17.7189 18.023 18.0235C16.548 19.4985 14.5871 20.3126 12.4996 20.3126Z" fill="#6D4C41"/>
	</symbol>

	<symbol viewBox="0 0 25 25" id="notBadIcon">
		<path d="M12.5 25C19.4036 25 25 19.4036 25 12.5C25 5.59644 19.4036 0 12.5 0C5.59644 0 0 5.59644 0 12.5C0 19.4036 5.59644 25 12.5 25Z" fill="#FFCA28"/>
		<path d="M7.8125 10.9375C8.67545 10.9375 9.375 10.2379 9.375 9.375C9.375 8.51206 8.67545 7.8125 7.8125 7.8125C6.94956 7.8125 6.25 8.51206 6.25 9.375C6.25 10.2379 6.94956 10.9375 7.8125 10.9375Z" fill="#6D4C41"/>
		<path d="M17.1875 10.9375C18.0504 10.9375 18.75 10.2379 18.75 9.375C18.75 8.51206 18.0504 7.8125 17.1875 7.8125C16.3246 7.8125 15.625 8.51206 15.625 9.375C15.625 10.2379 16.3246 10.9375 17.1875 10.9375Z" fill="#6D4C41"/>
		<path d="M16.4062 18.75H8.59375C8.1625 18.75 7.8125 18.4 7.8125 17.9688C7.8125 17.5375 8.1625 17.1875 8.59375 17.1875H16.4062C16.8375 17.1875 17.1875 17.5375 17.1875 17.9688C17.1875 18.4 16.8375 18.75 16.4062 18.75Z" fill="#6D4C41"/>
	</symbol>

	<symbol viewBox="0 0 25 25" id="badIcon">
		<path d="M12.5 25C19.4036 25 25 19.4036 25 12.5C25 5.59644 19.4036 0 12.5 0C5.59644 0 0 5.59644 0 12.5C0 19.4036 5.59644 25 12.5 25Z" fill="#FF5533"/>
		<path d="M17.9685 12.4999C17.806 12.4999 17.6404 12.4483 17.4998 12.3436L14.3748 9.99987C14.1779 9.853 14.0623 9.62019 14.0623 9.37487C14.0623 9.12956 14.1779 8.89675 14.3748 8.74987L17.4998 6.40612C17.8435 6.14831 18.3326 6.2155 18.5935 6.56237C18.8513 6.90769 18.781 7.39675 18.4357 7.65612L16.1451 9.37487L18.4373 11.0936C18.7826 11.353 18.8529 11.8421 18.5951 12.1874C18.4404 12.3921 18.2044 12.4999 17.9685 12.4999Z" fill="#6D4C41"/>
		<path d="M7.03081 12.4998C6.79331 12.4998 6.55894 12.392 6.40581 12.1873C6.14644 11.842 6.21675 11.3529 6.56206 11.0936L8.85425 9.37481L6.56206 7.65606C6.21675 7.39668 6.14644 6.90762 6.40581 6.56231C6.66519 6.217 7.15425 6.14668 7.49956 6.40606L10.6246 8.74981C10.8214 8.89668 10.9371 9.1295 10.9371 9.37481C10.9371 9.62012 10.8214 9.85293 10.6246 9.99981L7.49956 12.3436C7.35894 12.4482 7.19488 12.4998 7.03081 12.4998Z" fill="#6D4C41"/>
		<path d="M18.7498 18.7497C18.6326 18.7497 18.5139 18.7232 18.3998 18.6669L15.6248 17.2794L12.8498 18.6685C12.6295 18.7779 12.3701 18.7779 12.1514 18.6685L9.37482 17.2794L6.59982 18.6685C6.21388 18.8638 5.74513 18.7029 5.55138 18.3185C5.35763 17.9326 5.51544 17.4638 5.90138 17.2701L9.02638 15.7076C9.24669 15.5982 9.50607 15.5982 9.72482 15.7076L12.4998 17.0951L15.2748 15.706C15.4951 15.5966 15.7545 15.5966 15.9733 15.706L19.0983 17.2685C19.4842 17.4622 19.6404 17.931 19.4483 18.3169C19.3108 18.5904 19.0358 18.7497 18.7498 18.7497Z" fill="#6D4C41"/>
	</symbol>

	<symbol viewBox="0 0 20 20" id="closeForm">
		<path d="M11.8323 10.0001L19.6199 2.21215C20.1267 1.70557 20.1267 0.88651 19.6199 0.379933C19.1133 -0.126644 18.2943 -0.126644 17.7877 0.379933L9.99988 8.16793L2.21228 0.379933C1.70548 -0.126644 0.886669 -0.126644 0.380103 0.379933C-0.126701 0.88651 -0.126701 1.70557 0.380103 2.21215L8.1677 10.0001L0.380103 17.7881C-0.126701 18.2947 -0.126701 19.1138 0.380103 19.6204C0.632556 19.8731 0.964493 20 1.29619 20C1.62789 20 1.95959 19.8731 2.21228 19.6204L9.99988 11.8324L17.7877 19.6204C18.0404 19.8731 18.3721 20 18.7038 20C19.0355 20 19.3672 19.8731 19.6199 19.6204C20.1267 19.1138 20.1267 18.2947 19.6199 17.7881L11.8323 10.0001Z"/>
	</symbol>

	<symbol viewBox="0 0 24 23" id="like">
		<path d="M22.4873 10.5941C21.9733 9.81765 21.0738 9.42941 20.0458 9.42941H15.0344L16.8333 3.47647C17.0903 2.82941 16.9618 2.18235 16.4478 1.53529C15.9338 0.888234 15.2913 0.5 14.5204 0.5C13.7494 0.5 12.9784 0.888234 12.4644 1.40588L5.13995 9.42941H0V22.5H18.3753C19.0178 22.5 19.7888 22.2412 20.3028 21.8529C20.8168 21.4647 21.2023 20.9471 21.3308 20.3L23.0013 12.6647C23.1298 11.8882 23.0013 11.1118 22.4873 10.5941ZM5.01145 20.8176H1.67048V11.1118H5.01145V20.8176ZM21.3308 12.2765L19.6603 19.9118C19.5318 20.4294 19.0178 20.8176 18.3753 20.8176H6.68193V10.2059L13.7494 2.57059C14.0064 2.31176 14.2634 2.18235 14.5204 2.18235C14.7774 2.18235 15.0344 2.31176 15.1628 2.44118C15.2913 2.57059 15.2913 2.7 15.2913 2.82941L13.3639 9.04117L12.7214 10.9824H20.0458C20.5598 10.9824 20.9453 11.1118 21.2023 11.5C21.3308 11.7588 21.4593 12.0176 21.3308 12.2765Z" fill="#9B9B9B"/>
	</symbol>

	<symbol viewBox="0 0 24 23" id="dislike">
		<path d="M0.560574 12.4059C1.07457 13.1824 1.97406 13.5706 3.00205 13.5706L8.0135 13.5706L6.21452 19.5235C5.95752 20.1706 6.08602 20.8176 6.60002 21.4647C7.11401 22.1118 7.7565 22.5 8.5275 22.5C9.29849 22.5 10.0695 22.1118 10.5835 21.5941L17.9079 13.5706L23.0479 13.5706L23.0479 0.5L4.67253 0.499998C4.03004 0.499998 3.25905 0.758822 2.74505 1.14706C2.23106 1.53529 1.84556 2.05294 1.71706 2.7L0.0465804 10.3353C-0.0819196 11.1118 0.0465784 11.8882 0.560574 12.4059ZM18.0364 2.18235L21.3774 2.18235L21.3774 11.8882L18.0364 11.8882L18.0364 2.18235ZM1.71706 10.7235L3.38755 3.08823C3.51605 2.57059 4.03004 2.18235 4.67253 2.18235L16.3659 2.18235L16.3659 12.7941L9.29849 20.4294C9.04149 20.6882 8.78449 20.8176 8.5275 20.8176C8.2705 20.8176 8.0135 20.6882 7.885 20.5588C7.7565 20.4294 7.7565 20.3 7.7565 20.1706L9.68398 13.9588L10.3265 12.0176L3.00205 12.0176C2.48806 12.0176 2.10256 11.8882 1.84556 11.5C1.71706 11.2412 1.58856 10.9824 1.71706 10.7235Z" fill="#9B9B9B"/>
	</symbol>

	<symbol viewBox="0 0 24 23" id="dislikeActive">
		<path d="M23.0479 13.4412L19.2151 13.4412L19.2151 0.5L23.0479 0.5L23.0479 13.4412ZM2.9001 13.4412L8.30435 13.4412L6.3624 19.8341C5.95357 21.1671 7.02675 22.5 8.50877 22.5C9.24977 22.5 9.96523 22.1894 10.4507 21.6588L17.9375 13.4412L17.9375 0.5L4.61209 0.499998C3.25783 0.499998 2.08244 1.36706 1.81414 2.58353L0.102161 10.3482C-0.242791 11.9529 1.09869 13.4412 2.9001 13.4412Z" fill="#525252"/>
	</symbol>

	<symbol viewBox="0 0 24 23" id="likeActive">
		<path d="M23.0479 13.4412L19.2151 13.4412L19.2151 0.5L23.0479 0.5L23.0479 13.4412ZM2.9001 13.4412L8.30435 13.4412L6.3624 19.8341C5.95357 21.1671 7.02675 22.5 8.50877 22.5C9.24977 22.5 9.96523 22.1894 10.4507 21.6588L17.9375 13.4412L17.9375 0.5L4.61209 0.499998C3.25783 0.499998 2.08244 1.36706 1.81414 2.58353L0.102161 10.3482C-0.242791 11.9529 1.09869 13.4412 2.9001 13.4412Z" fill="#525252"/>
	</symbol>

	<symbol viewBox="0 0 14 24" id="arrowMFAnt">
		<path d="M0.250067 12C0.250067 11.5967 0.405898 11.1935 0.716903 10.8861L10.5085 1.21157C11.1314 0.596144 12.1413 0.596144 12.7639 1.21157C13.3865 1.82675 13.3865 2.82435 12.7639 3.43983L4.09971 12L12.7636 20.5601C13.3862 21.1756 13.3862 22.1731 12.7636 22.7882C12.141 23.4039 11.1311 23.4039 10.5082 22.7882L0.7166 13.1138C0.405544 12.8063 0.250067 12.4031 0.250067 12Z" fill="white"/>
	</symbol>

	<use width="25" height="25" href="#goodIcon"/>
	<use width="25" height="25" href="#notBadIcon"/>
	<use width="25" height="25" href="#badIcon"/>
	<use width="20" height="20" href="#closeForm"/>
	<use width="24" height="23" href="#like"/>
	<use width="24" height="23" href="#dislike"/>
	<use width="24" height="23" href="#dislikeActive"/>
	<use width="24" height="23" href="#likeActive"/>
	<use width="14" height="24" href="#arrowMFAnt"/>
</svg>